<?xml version="1.0" encoding="UTF-8"?>
<!DOCTYPE svg PUBLIC "-//W3C//DTD SVG 1.1//EN" "http://www.w3.org/Graphics/SVG/1.1/DTD/svg11.dtd">
<!-- Creator: CorelDRAW 2023 -->
<svg xmlns="http://www.w3.org/2000/svg" xml:space="preserve" width="34.9003mm" height="6.0891mm" version="1.1" style="shape-rendering:geometricPrecision; text-rendering:geometricPrecision; image-rendering:optimizeQuality; fill-rule:evenodd; clip-rule:evenodd"
viewBox="0 0 93.55 16.32"
 xmlns:xlink="http://www.w3.org/1999/xlink"
 xmlns:xodm="http://www.corel.com/coreldraw/odm/2003">
 <defs>
  <style type="text/css">
   <![CDATA[
    .fil0 {fill:#FEFEFE}
   ]]>
  </style>
 </defs>
 <g id="Camada_x0020_1">
  <metadata id="CorelCorpID_0Corel-Layer"/>
  <path class="fil0" d="M0.98 15.75l2.06 0c0.54,0 0.98,-0.44 0.98,-0.98l0 -3.79c0,-0.54 -0.44,-0.98 -0.98,-0.98l-2.06 0c-0.54,0 -0.98,0.44 -0.98,0.98l0 3.79c0,0.54 0.44,0.98 0.98,0.98zm91.42 -10.24c1.31,0.76 1.72,4.35 0,5.34l0 -5.34zm-28.05 -2.22l21.44 0c0.86,0 1.56,0.7 1.56,1.56l0 7.1c0,0.86 -0.7,1.56 -1.56,1.56l-21.44 0c-0.86,0 -1.56,-0.7 -1.56,-1.56l0 -7.1c0,-0.86 0.7,-1.56 1.56,-1.56zm0.25 -2.82l20.94 0c1.24,0 2.37,0.51 3.19,1.32 0.82,0.82 1.32,1.94 1.32,3.19l0 6.84c0,1.24 -0.51,2.37 -1.32,3.18 -0.82,0.82 -1.95,1.33 -3.19,1.33l-20.94 0c-1.24,0 -2.37,-0.51 -3.18,-1.32 -0.82,-0.82 -1.33,-1.95 -1.33,-3.19l0 -6.84c0,-1.24 0.51,-2.37 1.32,-3.19 0.82,-0.82 1.95,-1.32 3.19,-1.32zm20.94 0.54l-20.94 0c-1.09,0 -2.09,0.45 -2.81,1.17 -0.72,0.72 -1.17,1.71 -1.17,2.81l0 6.84c0,1.09 0.45,2.09 1.17,2.81 0.72,0.72 1.71,1.17 2.81,1.17l20.94 0c1.09,0 2.09,-0.45 2.81,-1.17 0.72,-0.72 1.17,-1.71 1.17,-2.81l0 -6.84c0,-1.09 -0.45,-2.09 -1.17,-2.81 -0.72,-0.72 -1.71,-1.17 -2.81,-1.17zm-52.66 5.66c5.89,-4.5 11.79,-4.26 17.68,0.03l1.95 -2.04c-7.18,-6.03 -14.36,-6.38 -21.54,0l1.91 2.01zm3.89 4.08c3.29,-2.43 6.57,-2.32 9.86,0.08l2.16 -2.27c-4.72,-3.63 -9.44,-3.82 -14.16,-0.04l2.13 2.23zm8.54 1.47c-2.41,-1.81 -4.83,-1.89 -7.24,-0.1l3.67 3.85 3.57 -3.75zm-24.44 3.54l2.06 0c0.54,0 0.98,-0.44 0.98,-0.98l0 -12.72c0,-0.54 -0.44,-0.98 -0.98,-0.98l-2.06 0c-0.54,0 -0.98,0.44 -0.98,0.98l0 12.72c0,0.54 0.44,0.98 0.98,0.98zm-6.77 0l2.06 0c0.54,0 0.98,-0.44 0.98,-0.98l0 -9.64c0,-0.54 -0.44,-0.98 -0.98,-0.98l-2.06 0c-0.54,0 -0.98,0.44 -0.98,0.98l0 9.64c0,0.54 0.44,0.98 0.98,0.98zm-6.64 0l2.06 0c0.54,0 0.98,-0.44 0.98,-0.98l0 -6.66c0,-0.54 -0.44,-0.98 -0.98,-0.98l-2.06 0c-0.54,0 -0.98,0.44 -0.98,0.98l0 6.66c0,0.54 0.44,0.98 0.98,0.98z"/>
 </g>
</svg>
