<?xml version="1.0" encoding="UTF-8"?>
<!DOCTYPE svg PUBLIC "-//W3C//DTD SVG 1.1//EN" "http://www.w3.org/Graphics/SVG/1.1/DTD/svg11.dtd">
<!-- Creator: CorelDRAW 2023 -->
<svg xmlns="http://www.w3.org/2000/svg" xml:space="preserve" width="34.8965mm" height="6.0902mm" version="1.1" style="shape-rendering:geometricPrecision; text-rendering:geometricPrecision; image-rendering:optimizeQuality; fill-rule:evenodd; clip-rule:evenodd"
viewBox="0 0 943.21 164.61"
 xmlns:xlink="http://www.w3.org/1999/xlink"
 xmlns:xodm="http://www.corel.com/coreldraw/odm/2003">
 <defs>
  <style type="text/css">
   <![CDATA[
    .fil0 {fill:#373435}
   ]]>
  </style>
 </defs>
 <g id="Camada_x0020_1">
  <metadata id="CorelCorpID_0Corel-Layer"/>
  <g id="_1134077912992">
   <path class="fil0" d="M9.88 158.76l20.77 0c5.45,0 9.88,-4.44 9.88,-9.88l0 -38.22c0,-5.45 -4.44,-9.88 -9.88,-9.88l-20.77 0c-5.45,0 -9.88,4.44 -9.88,9.88l0 38.22c0,5.45 4.44,9.88 9.88,9.88zm921.82 -103.25c13.21,7.66 17.34,43.86 0,53.84l0 -53.84zm-282.84 -22.39l216.19 0c8.67,0 15.73,7.06 15.73,15.73l0 71.59c0,8.67 -7.06,15.73 -15.73,15.73l-216.19 0c-8.67,0 -15.73,-7.06 -15.73,-15.73l0 -71.59c0,-8.67 7.06,-15.73 15.73,-15.73zm2.52 -28.44l211.15 0c12.5,0 23.9,5.14 32.17,13.31 8.27,8.27 13.31,19.56 13.31,32.17l0 68.97c0,12.5 -5.14,23.9 -13.31,32.06 -8.27,8.27 -19.66,13.41 -32.17,13.41l-211.15 0c-12.5,0 -23.9,-5.14 -32.06,-13.31 -8.27,-8.27 -13.41,-19.66 -13.41,-32.17l0 -68.97c0,-12.5 5.14,-23.9 13.31,-32.17 8.27,-8.27 19.66,-13.31 32.17,-13.31zm211.15 5.45l-211.15 0c-10.99,0 -21.07,4.54 -28.33,11.8 -7.26,7.26 -11.8,17.24 -11.8,28.33l0 68.97c0,10.99 4.54,21.07 11.8,28.33 7.26,7.26 17.24,11.8 28.33,11.8l211.15 0c10.99,0 21.07,-4.54 28.33,-11.8 7.26,-7.26 11.8,-17.24 11.8,-28.33l0 -68.97c0,-10.99 -4.54,-21.07 -11.8,-28.33 -7.26,-7.26 -17.24,-11.8 -28.33,-11.8zm-530.99 57.07c59.39,-45.38 118.88,-42.96 178.27,0.3l19.66 -20.57c-72.4,-60.8 -144.8,-64.33 -217.2,0l19.26 20.27 -0 0zm39.22 41.14c33.18,-24.5 66.25,-23.39 99.42,0.81l21.78 -22.89c-47.6,-36.6 -95.18,-38.52 -142.78,-0.4l21.48 22.49 0.1 0zm86.11 14.82c-24.3,-18.25 -48.7,-19.06 -73,-1.01l37.01 38.82 36 -37.81zm-246.44 35.7l20.77 0c5.45,0 9.88,-4.44 9.88,-9.88l0 -128.26c0,-5.45 -4.44,-9.88 -9.88,-9.88l-20.77 0c-5.45,0 -9.88,4.44 -9.88,9.88l0 128.26c0,5.45 4.44,9.88 9.88,9.88zm-68.26 0l20.77 0c5.45,0 9.88,-4.44 9.88,-9.88l0 -97.2c0,-5.45 -4.44,-9.88 -9.88,-9.88l-20.77 0c-5.45,0 -9.88,4.44 -9.88,9.88l0 97.2c0,5.45 4.44,9.88 9.88,9.88zm-66.95 0l20.77 0c5.45,0 9.88,-4.44 9.88,-9.88l0 -67.15c0,-5.45 -4.44,-9.88 -9.88,-9.88l-20.77 0c-5.45,0 -9.88,4.44 -9.88,9.88l0 67.15c0,5.45 4.44,9.88 9.88,9.88z"/>
  </g>
 </g>
</svg>
